<svg width="1728" height="1080" viewBox="0 0 1728 1080" fill="none" xmlns="http://www.w3.org/2000/svg">
<mask id="mask0_179_8120" style="mask-type:alpha" maskUnits="userSpaceOnUse" x="-67" y="0" width="1987" height="1080">
<rect x="-67" width="1987" height="1080" fill="white"/>
</mask>
<g mask="url(#mask0_179_8120)">
<path d="M63.8886 -303.727C145.883 -362.671 263.453 -331.639 360.283 -363.198C445.605 -391.005 509.032 -480.033 599.046 -478.143C689.08 -476.252 755.921 -399.19 832.415 -353.284C903.325 -310.729 994.657 -286.99 1035.12 -216.44C1075.66 -145.773 1029.6 -56.2023 1048.03 22.6118C1066.86 103.118 1158.08 167.455 1143.94 248.86C1130.02 328.964 1029.2 363.82 977.599 427.942C924.207 494.284 902.702 583.338 833.639 634.418C759.977 688.901 667.932 732.426 575.472 725.362C483.235 718.315 402.038 659.1 336.085 596.405C277.114 540.346 264.169 455.462 220.274 387.706C180.748 326.693 131.286 275.533 89.5759 215.893C29.076 129.387 -77.1926 59.3011 -82.3487 -45.001C-87.262 -144.391 -18.7382 -244.329 63.8886 -303.727Z" fill="url(#paint0_linear_179_8120)"/>
</g>
<defs>
<linearGradient id="paint0_linear_179_8120" x1="33.816" y1="-290.817" x2="994.742" y2="460.887" gradientUnits="userSpaceOnUse">
<stop offset="0.596597" stop-color="#DC2625"/>
<stop offset="1" stop-color="#7F1D1D"/>
</linearGradient>
</defs>
</svg>
