<svg width="1728" height="1080" viewBox="0 0 1728 1080" fill="none" xmlns="http://www.w3.org/2000/svg">
<mask id="mask0_179_8123" style="mask-type:alpha" maskUnits="userSpaceOnUse" x="0" y="0" width="1920" height="1080">
<rect width="1920" height="1080" fill="#C4C4C4"/>
</mask>
<g mask="url(#mask0_179_8123)">
<path opacity="0.570079" d="M101.211 639.556C109.555 656.649 103.87 677.707 86.6033 685.967C68.1202 694.81 45.3248 688.862 36.3928 670.565C28.2964 653.979 41.9973 636.926 58.7511 628.911C74.1521 621.544 93.7684 624.31 101.211 639.556Z" fill="#021940"/>
<path d="M-3.73598 470.239C10.0465 474.262 16.4072 490.163 28.2703 498.25C38.7234 505.377 54.4222 504.68 61.8284 514.936C69.2363 525.195 65.9609 539.446 67.1167 552.047C68.1882 563.728 73.1719 576.048 68.4175 586.772C63.6552 597.513 49.3647 600.204 41.785 609.182C34.0427 618.352 34.3089 634.221 23.6692 639.774C13.1994 645.238 0.616325 636.993 -11.1925 636.832C-23.41 636.664 -35.5604 642.063 -47.3354 638.8C-59.8946 635.32 -72.7403 628.819 -79.7536 617.834C-86.7501 606.876 -86.7608 592.581 -85.0763 579.69C-83.5702 568.163 -74.8217 559.268 -70.6817 548.405C-66.9538 538.624 -65.2102 528.592 -61.8265 518.687C-56.9186 504.318 -57.7923 486.259 -46.1319 476.534C-35.0207 467.268 -17.6248 466.185 -3.73598 470.239Z" fill="#DC2626"/>
</g>
</svg>
