<svg id="visual" viewBox="0 0 900 600" width="900" height="600" xmlns="http://www.w3.org/2000/svg" xmlns:xlink="http://www.w3.org/1999/xlink" version="1.1"><path d="M0 420L21.5 415.2C43 410.3 86 400.7 128.8 396.8C171.7 393 214.3 395 257.2 397.8C300 400.7 343 404.3 385.8 403.5C428.7 402.7 471.3 397.3 514.2 390.8C557 384.3 600 376.7 642.8 379.7C685.7 382.7 728.3 396.3 771.2 397.8C814 399.3 857 388.7 878.5 383.3L900 378L900 601L878.5 601C857 601 814 601 771.2 601C728.3 601 685.7 601 642.8 601C600 601 557 601 514.2 601C471.3 601 428.7 601 385.8 601C343 601 300 601 257.2 601C214.3 601 171.7 601 128.8 601C86 601 43 601 21.5 601L0 601Z" fill="#bf2323"></path><path d="M0 480L21.5 477.3C43 474.7 86 469.3 128.8 462.3C171.7 455.3 214.3 446.7 257.2 437C300 427.3 343 416.7 385.8 420.8C428.7 425 471.3 444 514.2 444.3C557 444.7 600 426.3 642.8 421.3C685.7 416.3 728.3 424.7 771.2 435.5C814 446.3 857 459.7 878.5 466.3L900 473L900 601L878.5 601C857 601 814 601 771.2 601C728.3 601 685.7 601 642.8 601C600 601 557 601 514.2 601C471.3 601 428.7 601 385.8 601C343 601 300 601 257.2 601C214.3 601 171.7 601 128.8 601C86 601 43 601 21.5 601L0 601Z" fill="#870c51"></path><path d="M0 510L21.5 505C43 500 86 490 128.8 492.2C171.7 494.3 214.3 508.7 257.2 510.2C300 511.7 343 500.3 385.8 490.3C428.7 480.3 471.3 471.7 514.2 472.7C557 473.7 600 484.3 642.8 485.5C685.7 486.7 728.3 478.3 771.2 483.3C814 488.3 857 506.7 878.5 515.8L900 525L900 601L878.5 601C857 601 814 601 771.2 601C728.3 601 685.7 601 642.8 601C600 601 557 601 514.2 601C471.3 601 428.7 601 385.8 601C343 601 300 601 257.2 601C214.3 601 171.7 601 128.8 601C86 601 43 601 21.5 601L0 601Z" fill="#351f4e"></path><path d="M0 563L21.5 556C43 549 86 535 128.8 528.2C171.7 521.3 214.3 521.7 257.2 527C300 532.3 343 542.7 385.8 549.8C428.7 557 471.3 561 514.2 555.7C557 550.3 600 535.7 642.8 531C685.7 526.3 728.3 531.7 771.2 536.7C814 541.7 857 546.3 878.5 548.7L900 551L900 601L878.5 601C857 601 814 601 771.2 601C728.3 601 685.7 601 642.8 601C600 601 557 601 514.2 601C471.3 601 428.7 601 385.8 601C343 601 300 601 257.2 601C214.3 601 171.7 601 128.8 601C86 601 43 601 21.5 601L0 601Z" fill="#001122"></path></svg>