<svg width="150" height="66" viewBox="0 0 150 66" fill="none" xmlns="http://www.w3.org/2000/svg">
<path d="M68.3043 41.1635C65.8136 41.1635 64.0022 39.351 64.0022 36.4058C64.0022 33.4606 65.8136 31.6481 68.3043 31.6481C70.7949 31.6481 72.6063 33.4606 72.6063 36.4058C72.6063 39.351 70.7949 41.1635 68.3043 41.1635ZM68.3043 27.7967C63.3229 27.7967 59.4738 31.4216 59.4738 36.4058C59.4738 41.39 63.0965 45.0149 68.3043 45.0149C73.512 45.0149 77.1348 41.39 77.1348 36.4058C76.9083 31.4216 73.2856 27.7967 68.3043 27.7967ZM52.2282 36.6323C52.0018 36.6323 52.0018 36.4058 52.2282 36.4058C53.1339 36.1792 53.8132 35.4996 54.4924 34.8199L59.9266 28.0232H54.7189L48.8318 35.4996V21H44.3034V44.7884H48.8318V37.0855L54.0396 43.2025C54.9453 44.3352 55.851 44.7884 57.4359 44.7884H60.6059L54.4924 37.7651C54.0396 37.0855 53.1339 36.6323 52.2282 36.6323ZM98.8714 27.7967C96.1544 27.7967 94.343 29.156 93.4373 30.7419C92.5316 28.9295 90.9466 27.7967 88.2295 27.7967C86.1917 27.7967 84.6067 28.7029 83.9275 30.0622C83.9275 30.2888 83.701 30.2888 83.701 30.0622C83.4746 28.9295 82.3425 28.0232 81.2104 28.0232H79.399V44.7884H83.9275V36.4058C83.9275 33.4606 85.0596 31.6481 87.3238 31.6481C89.1352 31.6481 90.0409 32.7809 90.0409 34.8199V45.0149H94.5694V36.1792C94.5694 33.234 95.7015 31.4216 97.7393 31.4216C99.5507 31.4216 100.456 32.5543 100.456 34.5933V44.7884H104.985V33.4606C104.985 30.0622 102.494 27.7967 98.8714 27.7967ZM41.1334 23.4921C41.1334 22.1328 40.0013 21 38.6428 21H36.8314V41.8431C36.8314 44.3352 38.4164 45.2415 40.0013 45.2415C40.6806 45.2415 41.3599 45.0149 42.0391 44.7884C41.3599 43.8821 41.1334 42.2962 41.1334 41.1635V23.4921ZM15.3212 26.2108C15.3212 23.7187 13.2834 21.6797 10.7927 21.6797H6.49066C5.13212 21.6797 4 22.8124 4 24.3983V26.4373H10.7927V41.8431C10.7927 44.3352 12.3777 45.2415 13.9626 45.2415C14.6419 45.2415 15.5476 45.0149 16.0004 44.7884C15.3212 43.8821 15.0947 42.2962 15.0947 41.1635L15.3212 26.2108ZM21.8874 25.3046V21.6797H13.7362C13.5098 21.6797 13.5098 21.9062 13.7362 21.9062C14.8683 22.5859 15.774 23.9452 16.0004 25.3046C16.0004 25.9842 16.4533 26.2108 17.1326 26.2108H20.7553C21.6408 26.2012 21.8874 25.9839 21.8874 25.3046ZM114.721 34.5933C112.457 33.9137 111.778 33.4606 111.778 32.7809C111.778 31.8747 112.683 31.195 114.268 31.195C116.08 31.195 118.117 31.8747 119.25 32.7809V29.156C117.891 28.2498 116.08 27.7967 114.042 27.7967C109.966 27.7967 107.476 30.0622 107.476 33.0075C107.476 35.9527 109.966 37.312 112.683 37.9917C114.947 38.6713 116.08 39.1245 116.08 40.0307C116.08 41.1635 115.174 41.8431 113.363 41.8431C110.872 41.8431 109.06 40.9369 107.702 39.5776V43.429C109.287 44.5618 111.325 45.0149 113.589 45.0149C117.891 45.0149 120.382 42.9759 120.382 39.8041C120.382 36.4058 117.438 35.273 114.721 34.5933ZM22.5667 34.5933C23.0196 32.5543 24.3781 30.9685 26.4159 30.9685C28.2273 30.9685 29.5858 32.1012 29.8123 34.5933H22.5667ZM26.4159 27.7967C21.8874 27.7967 18.0383 31.195 18.0383 36.6323C18.0383 41.6166 21.4346 45.2415 27.0952 45.2415C29.133 45.2415 31.1708 44.5618 32.9822 43.6556V39.5776C31.3972 40.7103 29.5858 41.39 27.548 41.39C24.831 41.39 22.7931 40.2572 22.3403 37.5386H34.1143C34.1143 37.0855 34.3407 36.4058 34.3407 35.9527C34.1143 30.7419 30.718 27.7967 26.4159 27.7967ZM126.269 34.5933C126.722 32.5543 128.08 30.9685 130.118 30.9685C131.929 30.9685 133.288 32.1012 133.514 34.5933H126.269ZM130.118 27.7967C125.589 27.7967 121.74 31.195 121.74 36.6323C121.74 41.6166 125.137 45.2415 130.797 45.2415C132.835 45.2415 134.873 44.5618 136.684 43.6556V39.5776C135.099 40.7103 133.288 41.39 131.25 41.39C128.533 41.39 126.495 40.2572 126.042 37.5386H137.816C137.816 37.0855 138.043 36.4058 138.043 35.9527C137.816 30.7419 134.42 27.7967 130.118 27.7967ZM144.835 40.9369V23.4921C144.835 22.1328 143.703 21 142.345 21H140.533V41.8431C140.533 44.3352 142.118 45.2415 143.703 45.2415C144.383 45.2415 145.062 45.0149 145.741 44.7884C144.835 43.6556 144.835 42.2962 144.835 40.9369Z" fill="#2A4061"/>
</svg>
