<svg width="1885" height="656" viewBox="0 0 1885 656" fill="none" xmlns="http://www.w3.org/2000/svg">
<g clip-path="url(#clip0_8_104)">
<rect width="1885" height="656" fill="white"/>
<path d="M213.948 293.013C283.621 293.013 331.403 346.854 331.342 413.159V526.539H268.382V413.196C268.382 378.367 248.632 350.219 213.875 350.183C179.13 350.146 159.319 378.269 159.27 413.11V526.466H96.3718V413.135C96.4326 346.793 144.324 293.025 213.96 293.025L213.948 293.013ZM607.855 224.303V526.563H549.116V499.703C541.576 510.094 531.681 518.554 520.239 524.391C508.797 530.227 496.134 533.273 483.286 533.281C414.477 533.281 358.656 479.549 358.656 413.232C358.656 346.927 414.441 293.025 482.824 293.025C505.619 293.044 527.653 301.219 544.932 316.07V224.303H607.855ZM484.502 476.208C492.777 476.194 500.967 474.552 508.606 471.376C516.245 468.199 523.183 463.551 529.024 457.696C534.864 451.842 539.494 444.895 542.647 437.254C545.8 429.612 547.415 421.424 547.401 413.159C547.401 396.47 540.764 380.464 528.95 368.662C517.136 356.861 501.113 350.231 484.405 350.231C476.131 350.241 467.94 351.878 460.3 355.05C452.66 358.222 445.72 362.867 439.877 368.718C434.034 374.57 429.402 381.514 426.246 389.153C423.09 396.793 421.471 404.979 421.482 413.244C421.467 421.522 423.088 429.721 426.252 437.372C429.416 445.022 434.06 451.974 439.919 457.828C445.77 463.677 452.721 468.312 460.373 471.466C468.024 474.62 476.225 476.232 484.502 476.208ZM1092.08 456.042C1092.08 504.733 1048.43 533.281 999.756 533.281C951.086 533.281 907.609 504.733 907.609 456.042H970.568C970.568 475.358 986.098 480.4 999.926 480.4C1013.74 480.4 1029.31 473.256 1029.31 458.569C1029.31 448.073 1015.46 438.427 996.569 435.888C952.533 430.422 910.138 403.55 910.138 367.895C910.138 321.804 951.244 293.159 999.926 293.159C1048.6 293.159 1089.57 321.707 1089.57 370.397H1026.62C1026.62 351.106 1013.61 346.064 999.756 346.064C985.904 346.064 972.903 351.106 972.903 366.218C972.903 379.654 1000.62 390.126 1024.94 393.09C1058.08 396.844 1092.08 417.848 1092.08 456.042ZM1361.46 413.232V526.575H1302.73V498.44C1295.43 509.155 1285.61 517.928 1274.14 523.998C1262.67 530.067 1249.89 533.249 1236.91 533.269C1168.09 533.269 1112.28 479.537 1112.28 413.22C1112.28 346.915 1168.03 293.013 1236.85 293.013C1305.66 293.013 1361.45 346.878 1361.45 413.22L1361.46 413.232ZM1301.05 413.232C1301.06 400.78 1297.38 388.604 1290.47 378.243C1283.55 367.881 1273.72 359.799 1262.21 355.018C1250.71 350.247 1238.05 348.996 1225.83 351.422C1213.62 353.849 1202.4 359.844 1193.6 368.648C1184.78 377.462 1178.78 388.686 1176.35 400.904C1173.92 413.122 1175.16 425.786 1179.93 437.298C1185.5 450.74 1195.57 461.836 1208.41 468.695C1221.26 475.555 1236.08 477.754 1250.37 474.917C1264.66 472.08 1277.51 464.383 1286.76 453.138C1296 441.892 1301.05 427.781 1301.05 413.232ZM1454.09 224.303V295.163H1517.02V348.992H1454.09V413.329C1454.08 421.598 1455.7 429.789 1458.85 437.433C1462.01 445.077 1466.65 452.024 1472.49 457.877C1478.33 463.725 1485.27 468.362 1492.91 471.522C1500.56 474.683 1508.75 476.304 1517.02 476.293V533.39H1508.62C1438.99 533.39 1391.15 479.646 1391.15 413.329V224.303H1454.09ZM762.268 533.378C693.167 533.378 637.213 479.646 637.213 413.329C637.213 347.024 693.034 293.025 762.28 293.025C831.515 293.025 887.336 346.757 887.336 413.098C887.336 479.452 831.503 533.378 762.268 533.378ZM762.268 350.341C749.775 350.178 737.516 353.733 727.052 360.552C716.587 367.37 708.391 377.145 703.504 388.632C698.607 400.125 697.237 412.812 699.569 425.084C701.901 437.356 707.829 448.66 716.602 457.561C725.364 466.454 736.579 472.539 748.816 475.04C761.054 477.541 773.76 476.345 785.314 471.604C796.874 466.853 806.76 458.776 813.715 448.4C820.671 438.023 824.381 425.816 824.376 413.329C824.519 396.725 818.053 380.745 806.402 368.903C800.638 363.046 793.774 358.383 786.203 355.181C778.631 351.979 770.502 350.301 762.28 350.243L762.268 350.341ZM72.4017 241.104C72.4018 250.699 68.5885 259.901 61.7999 266.689C55.0113 273.477 45.8027 277.296 36.1973 277.305C26.5941 277.296 17.3873 273.479 10.599 266.694C3.81075 259.908 -0.00389542 250.709 -0.00711313 241.116C-0.0316088 233.952 2.07631 226.943 6.04881 220.979C10.0213 215.015 15.679 210.365 22.3031 207.621C28.9272 204.876 36.2185 204.16 43.2507 205.564C50.2829 206.969 56.7384 210.43 61.797 215.507C68.5831 222.286 72.4017 231.494 72.4017 241.104ZM4.83312 299.877H67.7926V526.563H4.83312V299.877Z" fill="#4D4D4F"/>
<path d="M1816.34 68.1371C1843.13 94.9377 1858.64 130.962 1859.69 168.822C1876.7 149.459 1885.73 124.373 1884.95 98.6226C1884.18 72.872 1873.66 48.3725 1855.52 30.0645C1837.39 11.7708 1812.97 1.04833 1787.22 0.0715183C1761.47 -0.905292 1736.32 7.93664 1716.85 24.8043C1754.31 26.1406 1789.86 41.6175 1816.34 68.1371Z" fill="#FFCB05"/>
<path d="M1605.9 278.63C1579.42 252.114 1563.96 216.569 1562.63 179.135C1545.67 198.61 1536.76 223.795 1537.69 249.589C1538.62 275.384 1549.33 299.861 1567.66 318.063C1585.96 336.246 1610.51 346.779 1636.32 347.517C1662.12 348.255 1687.24 339.143 1706.55 322.035C1668.68 320.967 1632.65 305.432 1605.9 278.63Z" fill="#32BCAD"/>
<path d="M1567.53 173.693C1565.76 175.479 1564.25 177.386 1562.5 179.293C1565.54 257.346 1628.41 319.727 1706.45 322.132C1708.13 320.65 1709.74 319.229 1711.43 317.613C1724.05 304.969 1733.13 289.232 1737.75 271.978C1742.37 254.725 1742.37 236.562 1737.74 219.31C1733.13 202.062 1724.05 186.331 1711.42 173.698C1698.79 161.065 1683.06 151.976 1665.8 147.344C1648.54 142.723 1630.38 142.727 1613.13 147.355C1595.87 151.983 1580.15 161.06 1567.53 173.693Z" fill="#C6168D"/>
<path d="M1587.32 255.912C1586.17 254.212 1585.18 252.389 1584.04 250.616C1585.18 252.389 1586.17 254.199 1587.32 255.912ZM1595.97 267.635C1594.88 266.287 1593.94 264.866 1592.91 263.517C1593.94 264.866 1594.88 266.275 1595.97 267.635ZM1674.89 317.613C1672.29 316.957 1669.67 316.338 1667.1 315.512C1669.65 316.338 1672.29 316.969 1674.88 317.613H1674.89ZM1702.63 321.829C1699.87 321.829 1697.11 321.501 1694.34 321.209C1697.11 321.501 1699.87 321.671 1702.63 321.829ZM1647.68 307.87C1645.48 306.813 1643.24 305.866 1641.1 304.59C1643.24 305.866 1645.48 306.813 1647.67 307.87H1647.68ZM1634.45 300.788C1632.54 299.646 1630.59 298.589 1628.75 297.508C1630.59 298.589 1632.6 299.61 1634.45 300.788ZM1621.35 291.908C1619.89 290.778 1618.43 289.794 1617.01 288.615C1618.42 289.733 1619.9 290.79 1621.35 291.908Z" fill="#ED1C24"/>
<path d="M1711.59 173.693C1721.03 183.143 1732.24 190.641 1744.59 195.756C1756.93 200.872 1770.17 203.505 1783.53 203.505C1796.9 203.505 1810.13 200.872 1822.48 195.756C1834.82 190.641 1846.04 183.143 1855.48 173.693C1857.02 172.114 1858.53 170.413 1859.98 168.858C1857.63 90.6235 1795.1 27.5985 1716.92 24.6708C1715.03 26.2938 1713.2 27.9876 1711.43 29.7487C1692.37 48.8765 1681.68 74.7732 1681.71 101.76C1681.74 128.746 1692.49 154.607 1711.59 173.693Z" fill="#EC008C"/>
<path d="M1711.59 29.615C1713.34 27.8656 1715.11 26.3228 1716.92 24.6706C1696.44 23.8217 1676 27.2341 1656.91 34.6915C1637.81 42.1488 1620.48 53.4885 1606 67.9913C1591.51 82.5075 1580.19 99.8671 1572.75 118.974C1565.32 138.081 1561.93 158.521 1562.8 179.002C1564.38 177.155 1566.09 175.309 1567.7 173.572C1577.14 164.12 1588.36 156.622 1600.7 151.506C1613.05 146.389 1626.28 143.756 1639.64 143.756C1653.01 143.756 1666.24 146.389 1678.59 151.506C1690.93 156.622 1702.15 164.12 1711.59 173.572C1692.51 154.465 1681.79 128.58 1681.79 101.593C1681.79 74.6068 1692.51 48.7218 1711.59 29.615ZM1859.69 168.955C1858.28 170.571 1856.83 172.247 1855.31 173.693C1845.87 183.142 1834.65 190.637 1822.31 195.752C1809.96 200.866 1796.73 203.499 1783.37 203.499C1770 203.499 1756.77 200.866 1744.43 195.752C1732.08 190.637 1720.87 183.142 1711.43 173.693C1730.5 192.794 1741.22 218.673 1741.22 245.653C1741.22 272.634 1730.5 298.513 1711.43 317.613C1709.88 319.193 1708.14 320.577 1706.56 322.035C1747.55 323.396 1787.27 307.7 1816.28 278.702C1830.64 264.345 1841.91 247.198 1849.37 228.322C1856.84 209.446 1860.36 189.241 1859.7 168.955H1859.69Z" fill="#ED1C24"/>
<path d="M25.2643 650.694C18.9941 647.347 13.803 642.292 10.2937 636.116C6.70874 629.493 4.83154 622.082 4.83154 614.553C4.83154 607.023 6.70874 599.613 10.2937 592.99C13.8205 586.794 19.0134 581.716 25.2643 578.327C31.8182 574.815 39.1587 573.025 46.5954 573.127C54.0321 573.025 61.3725 574.815 67.9264 578.327C74.1774 581.728 79.3581 586.794 82.8849 592.977C86.4467 599.608 88.3107 607.016 88.3107 614.541C88.3107 622.065 86.4467 629.473 82.8849 636.104C79.3807 642.282 74.1938 647.342 67.9264 650.694C61.3708 654.199 54.0301 655.98 46.5954 655.869C39.1606 655.98 31.8199 654.199 25.2643 650.694ZM61.8336 641.607C66.3576 639.092 70.1033 635.363 72.6329 630.843C75.3449 625.851 76.7069 620.226 76.5732 614.541C76.6967 608.903 75.3381 603.332 72.6329 598.383C70.1477 593.851 66.44 590.105 61.9309 587.571C57.2716 585.031 52.0368 583.73 46.7291 583.793C41.3781 583.708 36.0758 585.008 31.3572 587.547C26.7817 590.037 23.0042 593.768 20.4606 598.31C17.8229 603.328 16.4449 608.91 16.4449 614.577C16.4449 620.244 17.8229 625.826 20.4606 630.843C22.9901 635.375 26.748 639.104 31.2842 641.607C35.9906 644.158 41.2565 645.433 46.5954 645.336C51.9099 645.421 57.1636 644.146 61.8336 641.607ZM134.303 650.694C128.033 647.347 122.842 642.292 119.333 636.116C115.748 629.493 113.87 622.082 113.87 614.553C113.87 607.023 115.748 599.613 119.333 592.99C122.859 586.794 128.04 581.716 134.291 578.327C140.897 574.885 148.238 573.088 155.689 573.088C163.14 573.088 170.481 574.885 177.087 578.327C183.338 581.728 188.519 586.794 192.058 592.977C195.619 599.608 197.483 607.016 197.483 614.541C197.483 622.065 195.619 629.473 192.058 636.104C188.531 642.287 183.35 647.341 177.087 650.694C170.475 654.112 163.14 655.896 155.695 655.896C148.251 655.896 140.915 654.112 134.303 650.694ZM170.86 641.607C175.421 639.104 179.179 635.375 181.733 630.843C184.316 625.822 185.663 620.259 185.663 614.613C185.663 608.968 184.316 603.404 181.733 598.383C179.233 593.849 175.514 590.104 170.994 587.571C166.349 585.029 161.125 583.728 155.829 583.793C150.454 583.708 145.151 585.008 140.42 587.547C135.857 590.049 132.086 593.777 129.536 598.31C126.908 603.331 125.536 608.912 125.536 614.577C125.536 620.242 126.908 625.823 129.536 630.843C132.053 635.375 135.811 639.104 140.36 641.607C145.052 644.112 150.29 645.423 155.61 645.423C160.93 645.423 166.168 644.112 170.86 641.607ZM225.732 574.84H257.62C264.663 574.372 271.627 576.557 277.139 580.963C281.894 585.676 284.375 592.224 283.913 598.906C284.071 604.214 282.441 609.426 279.279 613.69C275.976 617.877 271.321 620.788 266.108 621.927L283.584 654.156H271.569L254.664 622.838H237.176V654.156H225.732V574.84ZM255.674 613.058C259.991 613.301 264.248 612.038 267.75 609.511C270.839 606.887 272.505 602.951 272.238 598.906C272.441 596.854 272.152 594.783 271.395 592.865C270.637 590.947 269.434 589.236 267.884 587.875C264.276 585.491 259.993 584.336 255.674 584.583H237.188V613.058H255.674ZM312.285 574.84H364.579V584.717H323.875V609.803H354.278V619.448H323.875V644.644H364.579V654.29H312.285V574.84ZM392.392 574.84H417.931C425.603 574.655 433.211 576.278 440.138 579.578C446.218 582.578 451.253 587.328 454.622 593.208C458.1 599.61 459.839 606.814 459.657 614.079C459.657 627.26 455.862 637.233 448.274 644.012C440.685 650.791 430.031 654.18 416.313 654.156H392.392V574.84ZM416.228 644.51C426.809 644.51 434.762 641.898 440.04 636.675C445.33 631.451 447.982 623.919 447.982 614.079C448.358 610.067 447.839 606.021 446.461 602.234C445.084 598.446 442.882 595.011 440.016 592.176C437.153 589.34 433.696 587.176 429.893 585.84C426.09 584.504 422.037 584.029 418.028 584.449H403.97V644.377L416.216 644.498L416.228 644.51ZM506.162 650.694C499.898 647.338 494.709 642.285 491.191 636.116C487.629 629.485 485.765 622.077 485.765 614.553C485.765 607.028 487.629 599.62 491.191 592.99C494.718 586.794 499.911 581.728 506.162 578.327C512.768 574.892 520.106 573.099 527.554 573.099C535.001 573.099 542.339 574.892 548.945 578.327C555.196 581.728 560.377 586.794 563.916 592.977C567.478 599.608 569.342 607.016 569.342 614.541C569.342 622.065 567.478 629.473 563.916 636.104C560.401 642.287 555.209 647.341 548.958 650.694C542.343 654.109 535.006 655.891 527.56 655.891C520.114 655.891 512.776 654.109 506.162 650.694ZM542.767 641.607C547.304 639.104 551.062 635.375 553.591 630.843C556.327 625.863 557.702 620.238 557.568 614.541C557.682 608.907 556.333 603.341 553.652 598.383C551.156 593.851 547.44 590.106 542.926 587.571C538.266 585.031 533.032 583.73 527.724 583.793C522.364 583.717 517.073 585.01 512.352 587.547C507.784 590.047 504.009 593.776 501.455 598.31C498.828 603.331 497.455 608.912 497.455 614.577C497.455 620.242 498.828 625.823 501.455 630.843C503.985 635.375 507.743 639.104 512.279 641.607C516.972 644.114 522.213 645.426 527.535 645.426C532.858 645.426 538.098 644.114 542.792 641.607H542.767ZM615.201 650.694C608.932 647.34 603.739 642.287 600.218 636.116C596.656 629.485 594.792 622.077 594.792 614.553C594.792 607.028 596.656 599.62 600.218 592.99C603.757 586.794 608.938 581.728 615.201 578.327C621.805 574.887 629.144 573.091 636.592 573.091C644.041 573.091 651.379 574.887 657.984 578.327C664.235 581.728 669.416 586.794 672.955 592.977C680.24 606.438 680.24 622.656 672.955 636.104C669.447 642.284 664.256 647.343 657.984 650.694C651.373 654.112 644.037 655.896 636.592 655.896C629.148 655.896 621.812 654.112 615.201 650.694ZM651.855 641.607C656.403 639.104 660.161 635.375 662.679 630.843C665.427 625.863 666.814 620.238 666.668 614.541C666.782 608.907 665.433 603.341 662.752 598.383C660.256 593.851 656.54 590.106 652.025 587.571C647.366 585.031 642.131 583.73 636.824 583.793C631.463 583.717 626.172 585.01 621.452 587.547C616.884 590.047 613.109 593.776 610.555 598.31C607.938 603.334 606.572 608.914 606.572 614.577C606.572 620.24 607.938 625.82 610.555 630.843C613.109 635.375 616.867 639.104 621.415 641.607C626.109 644.114 631.349 645.426 636.672 645.426C641.994 645.426 647.234 644.114 651.928 641.607H651.843H651.855ZM764.518 574.84H776.071V608.879H817.505V574.852H829.058V654.168H817.505V618.634H776.059V654.168H764.506L764.518 574.84ZM867.391 647.535C864.535 644.445 862.331 640.812 860.911 636.852C859.49 632.893 858.881 628.689 859.121 624.49V574.767H870.675V624.915C870.298 630.588 872.377 636.164 876.378 640.198C880.84 643.554 886.274 645.37 891.86 645.37C897.445 645.37 902.88 643.554 907.341 640.198C911.342 636.152 913.41 630.588 913.008 624.915V574.852H924.586V624.563C924.832 628.766 924.223 632.976 922.798 636.938C921.373 640.901 919.16 644.534 916.292 647.62C910.771 653.208 902.635 656.002 891.908 656.002C881.182 656.002 873.01 653.184 867.391 647.535ZM974.752 584.583H950.101V574.706H1011.05V584.583H986.427V654.156H974.752V584.583ZM1048.79 650.767C1042.55 647.458 1037.4 642.427 1033.95 636.274C1030.29 629.624 1028.46 622.127 1028.63 614.541C1028.45 606.903 1030.29 599.354 1033.95 592.649C1037.39 586.483 1042.55 581.441 1048.79 578.132C1055.52 574.646 1063.01 572.892 1070.58 573.03C1080.37 572.687 1089.99 575.606 1097.93 581.327V592.649C1090.56 586.549 1081.17 583.436 1071.6 583.927C1065.96 583.814 1060.37 585.104 1055.35 587.681C1050.69 590.09 1046.84 593.806 1044.28 598.371C1041.65 603.417 1040.27 609.022 1040.27 614.711C1040.27 620.399 1041.65 626.004 1044.28 631.05C1046.88 635.63 1050.75 639.372 1055.41 641.813C1060.4 644.364 1065.96 645.664 1071.58 645.567C1076.68 645.646 1081.75 644.899 1086.61 643.356C1091.14 641.819 1095.32 639.404 1098.92 636.249V647.474C1092.1 653.16 1082.64 656.002 1070.55 656.002C1062.98 656.091 1055.49 654.291 1048.79 650.767ZM1127.32 574.84H1138.94V608.879H1180.34V574.852H1191.89V654.168H1180.34V618.634H1138.94V654.168H1127.35L1127.32 574.84ZM1222.5 574.84H1234.18V654.156H1222.5V574.84ZM1273.37 654.678C1269.64 654.072 1266 652.969 1262.55 651.398V640.914C1269.9 644.348 1277.93 646.091 1286.05 646.017C1297.84 646.017 1303.73 642.056 1303.73 634.136C1303.85 631.789 1303.18 629.469 1301.82 627.551C1300.3 625.707 1298.4 624.214 1296.25 623.178C1293.82 621.927 1289.9 620.214 1284.44 618.003C1278.39 615.903 1272.86 612.535 1268.22 608.126C1264.87 604.351 1263.09 599.441 1263.24 594.399C1263.14 590.455 1264.29 586.58 1266.53 583.332C1268.96 579.991 1272.27 577.379 1276.07 575.824C1280.53 573.978 1285.32 573.066 1290.13 573.151C1294.05 573.115 1297.96 573.455 1301.81 574.172C1305.33 574.876 1308.75 575.982 1312.02 577.476V587.353C1305.76 584.484 1298.97 582.977 1292.08 582.931C1287.71 582.666 1283.36 583.688 1279.56 585.871C1278.18 586.789 1277.06 588.047 1276.31 589.523C1275.55 591 1275.19 592.645 1275.26 594.302C1275.21 596.54 1275.86 598.738 1277.13 600.582C1278.63 602.489 1280.54 604.044 1282.69 605.126C1285.17 606.45 1288.83 608.09 1293.66 610.07C1298.06 611.771 1302.31 613.86 1306.36 616.29C1312.66 619.959 1316.35 626.859 1315.9 634.148C1316.05 637.208 1315.46 640.258 1314.17 643.041C1312.89 645.824 1310.96 648.257 1308.53 650.135C1303.6 653.913 1296.34 655.808 1286.74 655.808C1282.26 655.823 1277.79 655.445 1273.37 654.678ZM1362.51 650.694C1356.24 647.347 1351.04 642.292 1347.53 636.116C1343.97 629.485 1342.11 622.077 1342.11 614.553C1342.11 607.028 1343.97 599.62 1347.53 592.99C1351.06 586.794 1356.24 581.716 1362.49 578.327C1369.1 574.885 1376.44 573.088 1383.89 573.088C1391.34 573.088 1398.68 574.885 1405.29 578.327C1411.55 581.728 1416.73 586.794 1420.26 592.977C1427.56 606.438 1427.56 622.656 1420.26 636.104C1416.75 642.284 1411.56 647.343 1405.29 650.694C1398.68 654.112 1391.34 655.896 1383.9 655.896C1376.45 655.896 1369.12 654.112 1362.51 650.694ZM1399.11 641.607C1403.63 639.104 1407.38 635.375 1409.93 630.843C1412.53 625.826 1413.88 620.261 1413.88 614.613C1413.88 608.966 1412.53 603.401 1409.93 598.383C1407.43 593.856 1403.71 590.113 1399.2 587.571C1394.54 585.031 1389.3 583.73 1383.99 583.793C1378.63 583.717 1373.34 585.01 1368.62 587.547C1364.05 590.037 1360.27 593.768 1357.73 598.31C1354.98 603.267 1353.59 608.879 1353.71 614.541C1353.59 620.226 1354.95 625.838 1357.66 630.843C1360.21 635.375 1363.95 639.104 1368.49 641.607C1378.04 646.709 1389.49 646.709 1399.04 641.607H1399.11ZM1453.93 574.84H1464.95L1505.33 634.634V574.84H1517.02V654.156H1505.9L1465.52 594.362V654.156H1453.93V574.84Z" fill="#4D4D4F"/>
</g>
<defs>
<clipPath id="clip0_8_104">
<rect width="1885" height="656" fill="white"/>
</clipPath>
</defs>
</svg>
