<svg width="1178" height="1178" viewBox="0 0 1178 1178" fill="none" xmlns="http://www.w3.org/2000/svg">
<g clip-path="url(#clip0_8_125)">
<path fill-rule="evenodd" clip-rule="evenodd" d="M0 1178H1178V0H0V1178Z" fill="white"/>
<path fill-rule="evenodd" clip-rule="evenodd" d="M663.114 396.442C671.461 236.648 785.932 181.808 905.168 181.808C962.404 181.808 986.251 185.372 1008.91 187.772C1010.1 272.431 999.371 310.58 964.789 310.58H911.131C846.746 310.58 814.543 339.2 814.543 411.933V457.245H968.367C976.716 568.144 955.247 578.873 918.28 578.873H814.543V1027.23H663.114V396.442ZM446.089 144.843C450.862 143.642 456.828 142.459 461.59 142.459C473.519 142.459 475.9 148.407 475.9 159.153V255.724C475.9 280.778 494.973 289.125 516.44 289.125C537.905 289.125 558.178 280.778 558.178 255.724V143.642H589.18V323.692C589.18 376.166 552.215 392.86 512.866 392.86C475.9 392.86 450.862 378.55 450.862 361.855C450.862 354.691 454.436 351.129 461.59 342.783C474.71 358.273 489.02 364.239 512.866 364.239C539.095 364.239 558.178 354.691 558.178 329.655V299.853C552.215 308.201 537.905 316.546 510.485 316.546C479.475 316.546 446.089 301.036 446.089 253.343V144.843ZM271.995 318.927V204.465C271.995 175.845 251.731 167.501 230.264 167.501C208.8 167.501 189.717 175.845 189.717 204.465V318.927H159.916V205.646C159.916 157.953 196.876 140.06 227.883 140.06C258.888 140.06 276.77 149.605 287.496 167.501C299.425 150.806 314.926 140.06 345.928 140.06C375.74 140.06 413.896 154.37 413.896 205.646V317.743C407.932 318.927 400.779 320.127 397.207 320.127C385.278 320.127 382.894 314.162 382.894 304.618V204.465C382.894 174.647 363.813 167.501 345.928 167.501C322.083 167.501 301.806 175.845 301.806 204.465V318.927H271.995ZM349.501 1037.95C249.34 1037.95 187.336 1022.45 151.571 995.027C124.141 972.373 131.298 917.515 162.3 862.672C193.299 880.548 251.731 909.166 343.547 909.166C399.588 909.166 437.744 899.639 437.744 861.471C437.744 823.326 404.361 814.977 324.464 800.665C221.923 779.195 147.989 736.265 147.989 625.383C147.989 518.067 239.805 448.898 381.704 448.898C473.519 448.898 540.286 467.974 579.643 485.866C567.716 576.491 545.061 594.381 517.631 594.381C478.284 594.381 448.473 572.909 376.93 572.909C323.271 572.909 293.462 588.415 293.462 620.604C293.462 658.767 331.618 664.733 386.469 674.258C515.25 699.317 587.99 744.628 587.99 855.508C587.99 954.474 527.178 1037.95 349.501 1037.95Z" fill="black"/>
<mask id="mask0_8_125" style="mask-type:alpha" maskUnits="userSpaceOnUse" x="0" y="0" width="1178" height="1178">
<path fill-rule="evenodd" clip-rule="evenodd" d="M0 1178H1178V0H0V1178Z" fill="white"/>
</mask>
<g mask="url(#mask0_8_125)">
<path fill-rule="evenodd" clip-rule="evenodd" d="M886.099 1027.23H1043.49V868.635H886.099V1027.23Z" fill="#FF0E5E"/>
</g>
</g>
<defs>
<clipPath id="clip0_8_125">
<rect width="1178" height="1178" fill="white"/>
</clipPath>
</defs>
</svg>
