<svg width="1280" height="1280" viewBox="0 0 1280 1280" fill="none" xmlns="http://www.w3.org/2000/svg">
<path d="M1013.46 63H279.542C162.711 63 68 157.711 68 274.542V1008.46C68 1125.29 162.711 1220 279.542 1220H1013.46C1130.29 1220 1225 1125.29 1225 1008.46V274.542C1225 157.711 1130.29 63 1013.46 63Z" fill="url(#paint0_linear_7_27)"/>
<path fill-rule="evenodd" clip-rule="evenodd" d="M577.211 113C574.089 113 570.066 114.466 570.024 119.809C569.982 125.151 575.535 136.568 575.22 162.693C574.906 189.927 568.683 208.321 530.758 254.872L380.399 439.083C293.403 545.654 234.273 594.258 234.001 710.529C233.729 826.8 293.445 883.636 380.462 953.546C467.48 1023.46 580.207 1114.5 667.896 1185.73C669.956 1187.7 672.656 1188.86 675.502 1189C678.624 1189 682.626 1187.55 682.667 1182.21C682.709 1176.87 676.717 1171.61 677.031 1145.47C677.345 1118.23 679.985 1101.97 718.162 1055.7L876.022 864.258C963.563 758.126 1017.73 710.654 1018 595.766C1018.27 480.878 958.053 418.154 880.946 358.363C779.512 279.697 661.631 180.521 584.796 116.268C582.745 114.299 580.051 113.138 577.211 113Z" fill="white"/>
<path fill-rule="evenodd" clip-rule="evenodd" d="M447 506.477V553.864H580.54V862.845C580.54 906.227 611.382 926 641.597 926C671.812 926 690.978 915.915 690.978 915.915C690.978 915.915 672.565 900.964 672.481 834.539C672.481 770.105 672.481 566.906 672.481 538.265C672.481 509.623 639.149 458 584.285 458H499.437C471.649 458 447 480.771 447 506.477ZM643.124 458C642.286 458 641.483 458.334 640.89 458.927C640.298 459.521 639.965 460.326 639.965 461.166C639.965 462.927 641.722 464.227 643.124 465.36C648.941 469.7 667.083 482.574 675.725 500.208C684.366 517.842 684.597 533.756 690.225 543.045C695.854 552.334 705.019 553.948 714.728 553.948H784.532C799.953 553.948 806 543.464 806 531.24V458H643.124Z" fill="#FF0025"/>
<defs>
<linearGradient id="paint0_linear_7_27" x1="290.055" y1="1258.85" x2="1128.06" y2="-192.585" gradientUnits="userSpaceOnUse">
<stop stop-color="#FF0025"/>
<stop offset="0.26" stop-color="#FF0225"/>
<stop offset="0.4" stop-color="#FF0A23"/>
<stop offset="0.51" stop-color="#FF1821"/>
<stop offset="0.6" stop-color="#FF2B1E"/>
<stop offset="0.69" stop-color="#FF441B"/>
<stop offset="0.77" stop-color="#FF6316"/>
<stop offset="0.85" stop-color="#FF8810"/>
<stop offset="0.92" stop-color="#FFB30A"/>
<stop offset="0.98" stop-color="#FFE202"/>
<stop offset="1" stop-color="#FFF200"/>
</linearGradient>
</defs>
</svg>
