<svg width="1280" height="1280" viewBox="0 0 1280 1280" fill="none" xmlns="http://www.w3.org/2000/svg">
<path fill-rule="evenodd" clip-rule="evenodd" d="M770.228 14.7607C781.601 7.50804 795.486 1.26706 809.121 5.23501C821.245 9.82049 825.426 23.9842 825.137 35.8487C825.189 183.88 825.189 331.912 825.137 479.944C965.267 479.944 1105.38 479.944 1245.47 479.944C1256.65 479.878 1270.1 483.649 1274.51 495.08C1279.12 508.666 1272.13 522.488 1265.95 534.313C1229.25 601.807 1190.92 668.33 1152.03 734.615C1140.47 750.001 1125.24 764.323 1106.01 768.974C1090.02 772.81 1073.46 772.679 1057.16 772.915C1010.66 773.073 964.197 772.915 917.703 772.915C897.468 772.915 874.72 773.783 858.758 787.868C845.491 800.547 847.134 821.017 852.302 837.086C863.61 871.352 885.174 900.849 901.149 933C884.695 922.02 868.833 910.178 853.63 897.525C806.413 855.783 763.193 809.494 726.653 758.003C617.124 606.222 560.44 420.543 550.131 234.759C548.33 194.028 565.016 149.421 601.49 128.031C657.767 90.3226 714.013 52.5658 770.228 14.7607Z" fill="#29B895"/>
<path fill-rule="evenodd" clip-rule="evenodd" d="M12.6901 311.711C18.4777 299.545 33.0976 295.774 45.4996 296.01C130.367 296.01 215.278 296.01 300.232 296.01C314.944 296.299 330.417 296.878 343.685 304.091C357.176 311.383 367.308 323.168 377.649 334.205C408.648 369.479 439.607 404.792 470.526 440.144C472.298 441.997 475.461 446.122 477.928 442.549C494.989 424.062 511.118 404.709 528.074 386.051C542.221 476.342 577.091 562.586 624.271 640.526C684.352 739.067 763.305 825.495 853.124 897.601C868.298 910.255 884.13 922.096 900.553 933.077C910.803 944.258 920.58 955.912 930.423 967.448C937.812 976.054 942.851 988.47 938.218 999.559C933.153 1010.57 920.199 1015.04 908.834 1014.89C823.092 1014.95 737.35 1014.95 651.608 1014.89C637.172 1014.89 622.119 1014.49 608.982 1007.88C595.202 1000.73 584.611 989.075 574.243 977.788C543.7 943.11 513.187 908.367 482.705 873.557C480.372 870.845 477.658 868.486 474.647 866.554C442.31 902.804 410.642 939.646 378.424 975.988C367.859 987.813 357.032 999.875 342.989 1007.52C329.866 1014.38 314.773 1014.98 300.35 1014.98C214.521 1014.93 128.682 1014.93 42.8355 1014.98C30.5122 1015.33 15.8399 1010.07 11.9552 997.208C8.20182 984.069 16.1548 971.889 24.5803 962.665C113.621 860.182 202.862 757.852 292.305 655.675C202.67 552.311 112.129 449.736 22.638 346.254C14.2781 337.148 7.88684 324.062 12.6901 311.711Z" fill="#1F4098"/>
</svg>
